{
	"asset":{
		"generator":"Khronos glTF Blender I/O v4.2.60",
		"version":"2.0"
	},
	"scene":0,
	"scenes":[
		{
			"name":"Scene",
			"nodes":[
				3
			]
		}
	],
	"nodes":[
		{
			"mesh":0,
			"name":"Mesh"
		},
		{
			"children":[
				0
			],
			"name":"Geometry"
		},
		{
			"name":"Materials"
		},
		{
			"children":[
				1,
				2
			],
			"name":"ObjectCapture",
			"rotation":[
				0.7071068286895752,
				0,
				0,
				0.7071068286895752
			]
		}
	],
	"materials":[
		{
			"doubleSided":true,
			"name":"Texture",
			"normalTexture":{
				"index":0
			},
			"pbrMetallicRoughness":{
				"baseColorTexture":{
					"index":1
				},
				"metallicFactor":0,
				"roughnessFactor":0.8999999761581421
			}
		}
	],
	"meshes":[
		{
			"name":"Mesh",
			"primitives":[
				{
					"attributes":{
						"POSITION":0,
						"NORMAL":1,
						"TEXCOORD_0":2
					},
					"indices":3,
					"material":0
				}
			]
		}
	],
	"textures":[
		{
			"sampler":0,
			"source":0
		},
		{
			"sampler":0,
			"source":1
		}
	],
	"images":[
		{
			"mimeType":"image/png",
			"name":"baked_mesh_norm0",
			"uri":"baked_mesh_norm0.png"
		},
		{
			"mimeType":"image/png",
			"name":"baked_mesh_tex0",
			"uri":"baked_mesh_tex0.png"
		}
	],
	"accessors":[
		{
			"bufferView":0,
			"componentType":5126,
			"count":14841,
			"max":[
				0.15775516629219055,
				0.18999922275543213,
				-2.1319580767453772e-08
			],
			"min":[
				-0.15185558795928955,
				-0.16994890570640564,
				-0.09907277673482895
			],
			"type":"VEC3"
		},
		{
			"bufferView":1,
			"componentType":5126,
			"count":14841,
			"type":"VEC3"
		},
		{
			"bufferView":2,
			"componentType":5126,
			"count":14841,
			"type":"VEC2"
		},
		{
			"bufferView":3,
			"componentType":5123,
			"count":75000,
			"type":"SCALAR"
		}
	],
	"bufferViews":[
		{
			"buffer":0,
			"byteLength":178092,
			"byteOffset":0,
			"target":34962
		},
		{
			"buffer":0,
			"byteLength":178092,
			"byteOffset":178092,
			"target":34962
		},
		{
			"buffer":0,
			"byteLength":118728,
			"byteOffset":356184,
			"target":34962
		},
		{
			"buffer":0,
			"byteLength":150000,
			"byteOffset":474912,
			"target":34963
		}
	],
	"samplers":[
		{
			"magFilter":9729,
			"minFilter":9987
		}
	],
	"buffers":[
		{
			"byteLength":624912,
			"uri":"untitled.bin"
		}
	]
}
